<?xml version="1.0" encoding="UTF-8" standalone="no"?>
<svg width="33px" height="44px" viewBox="0 0 33 44" version="1.1" xmlns="http://www.w3.org/2000/svg" xmlns:xlink="http://www.w3.org/1999/xlink" xmlns:sketch="http://www.bohemiancoding.com/sketch/ns">
    <!-- Generator: Sketch 3.0.4 (8053) - http://www.bohemiancoding.com/sketch -->
    <title>icon-lead-capture-lock</title>
    <desc>Created with Sketch.</desc>
    <defs></defs>
    <g id="Page-1" stroke="none" stroke-width="1" fill="none" fill-rule="evenodd" sketch:type="MSPage">
        <path d="M28.1322,18.9447847 L28.1322,11.8240175 C28.1322,5.29574356 22.8636,0.0030860274 16.3656,0.0030860274 C16.2846,0.0030860274 16.2258,-0.00173589041 16.146,0.000675068493 C16.0806,-0.000530410959 15.9972,0.00429150685 15.9306,0.00429150685 C9.4314,0.00429150685 4.1652,5.29694904 4.1652,11.8246203 L4.1652,18.9447847 L0,18.9447847 L0,43.3937162 L32.4072,43.3937162 L32.4072,18.9447847 L28.1322,18.9447847 L28.1322,18.9447847 Z M10.0512,11.8246203 C10.0512,8.56862027 12.6894,5.92018192 15.9306,5.92018192 C16.023,5.92018192 16.218,5.91536 16.218,5.91536 C16.218,5.91536 16.3164,5.91897644 16.3656,5.91897644 C19.6068,5.91897644 22.2444,8.56741479 22.2444,11.8240175 L22.2444,18.9447847 L10.0512,18.9447847 L10.0512,11.8246203 L10.0512,11.8246203 Z" id="icon-lead-capture-lock" fill="#506063" sketch:type="MSShapeGroup"></path>
    </g>
</svg>