<?xml version="1.0" encoding="UTF-8" standalone="no"?>
<svg width="43px" height="33px" viewBox="0 0 43 33" version="1.1" xmlns="http://www.w3.org/2000/svg" xmlns:xlink="http://www.w3.org/1999/xlink" xmlns:sketch="http://www.bohemiancoding.com/sketch/ns">
    <!-- Generator: Sketch 3.0.4 (8053) - http://www.bohemiancoding.com/sketch -->
    <title>icon-lead-capture-mail</title>
    <desc>Created with Sketch.</desc>
    <defs></defs>
    <g id="Page-1" stroke="none" stroke-width="1" fill="none" fill-rule="evenodd" sketch:type="MSPage">
        <g id="icon-lead-capture-mail" sketch:type="MSLayerGroup" fill="#506063">
            <path d="M42.1355251,5.09246439 L29.1808904,16.32 L21.1333942,22.9842732 L13.1450837,16.3710127 L0.132435312,5.09246439 C0.0539117199,5.33922341 0,5.59725268 0,5.86951805 L0,29.6254127 C0,29.7796371 0.0187519026,29.9285229 0.0474657534,30.0744429 C0.253736682,31.2779863 1.2897793,32.2027395 2.53560883,32.2027395 L39.7130137,32.2027395 C40.8328539,32.2027395 41.776895,31.4529717 42.1091553,30.4279727 L42.1232192,30.4422088 C42.2105327,30.1835863 42.2679604,29.9119141 42.2679604,29.6254127 L42.2679604,5.86951805 C42.2679604,5.59725268 42.2146347,5.33922341 42.1355251,5.09246439" id="Fill-1" sketch:type="MSShapeGroup"></path>
            <path d="M17.510761,13.8190985 L21.1333942,16.8021541 L26.6025038,12.2976156 L40.4484399,0.301330732 C40.2210731,0.233116098 39.9849163,0.185069268 39.7364536,0.185069268 L2.53150685,0.185069268 C2.28245814,0.185069268 2.04630137,0.233116098 1.81834855,0.301923902 L15.6724886,12.3047337 L17.510761,13.8190985" id="Fill-2" sketch:type="MSShapeGroup"></path>
        </g>
    </g>
</svg>